<svg version="1.1" id="Layer_1" xmlns="http://www.w3.org/2000/svg" xmlns:xlink="http://www.w3.org/1999/xlink" x="0px" y="0px" width="48px" height="48px" viewBox="0 0 48 48" enable-background="new 0 0 48 48" xml:space="preserve">
<g id="color_19_">
	<g>
		<circle fill="#fa0a0a" cx="27" cy="19" r="10" id="id_101"></circle>
	</g>
</g>
<g id="outline_18_">
	<g>
		<path fill-rule="evenodd" clip-rule="evenodd" fill="#384D68" d="M28.442,13.114l0.005-0.009l-4-2l-0.005,0.009
			C24.308,11.047,24.161,11,24,11s-0.308,0.047-0.442,0.114l-0.005-0.009l-4,2l0.004,0.009C19.23,13.279,19,13.609,19,14v5
			c0,0.391,0.23,0.721,0.557,0.886l-0.004,0.009l4,2l0.005-0.009C23.692,21.953,23.839,22,24,22s0.308-0.047,0.442-0.114
			l0.005,0.009l4-2l-0.005-0.009C28.77,19.721,29,19.391,29,19v-5C29,13.609,28.77,13.279,28.442,13.114z M23,19.382l-2-1v-2.764
			l2,1V19.382z M24,14.882L22.236,14L24,13.118L25.764,14L24,14.882z M27,18.382l-2,1v-2.764l2-1V18.382z M24,2
			C15.716,2,9,8.716,9,17c0,13.891,14.626,29,15,29c0.174,0,15-14.966,15-29C39,8.716,32.284,2,24,2z M24,43
			c-0.324,0-13-14.05-13-26.046C11,9.8,16.82,4,24,4s13,5.8,13,12.954C37,29.074,24.15,43,24,43z M24,6c-6.075,0-11,4.925-11,11
			s4.925,11,11,11s11-4.925,11-11S30.075,6,24,6z M24,26c-4.971,0-9-4.029-9-9s4.029-9,9-9s9,4.029,9,9S28.971,26,24,26z" id="id_102"></path>
	</g>
</g>
</svg>